<svg width="54" height="54" viewBox="0 0 54 54" fill="none" xmlns="http://www.w3.org/2000/svg">
<path d="M1 27C1 12.641 12.641 1 27 1C41.359 1 53 12.641 53 27C53 41.359 41.359 53 27 53C12.641 53 1 41.359 1 27Z" fill="black"/>
<path d="M27 54C12.112 54 0 41.888 0 27C0 12.112 12.112 0 27 0C41.888 0 54 12.112 54 27C54 41.888 41.888 54 27 54ZM27 2C13.215 2 2 13.215 2 27C2 40.785 13.215 52 27 52C40.785 52 52 40.785 52 27C52 13.215 40.785 2 27 2Z" fill="black"/>
<path d="M27 34.999C26.562 34.999 26.125 34.832 25.791 34.499L14.293 23.001C13.902 22.61 13.902 21.978 14.293 21.587C14.684 21.196 15.316 21.196 15.707 21.587L27 32.88L38.293 21.587C38.684 21.196 39.316 21.196 39.707 21.587C40.098 21.978 40.098 22.61 39.707 23.001L28.209 34.499C27.876 34.832 27.438 34.999 27 34.999Z" fill="white"/>
</svg>
