<svg width="25" height="15" viewBox="0 0 25 15" fill="none" xmlns="http://www.w3.org/2000/svg">
<path d="M1 4.84109C1.9903 4.84109 4.44359 4.75119 6.68505 4.57002C7.84088 4.4766 9.76971 4.16545 12.5635 3.57699C15.3574 2.98853 18.9535 2.08949 20.8735 1.60387C22.931 1.08349 23.2921 1.02699 23.7225 1.00451C23.9291 0.993723 24.108 0.937084 22.7172 1.85792C21.3264 2.77875 18.3596 4.66673 16.3368 5.81913C12.1191 8.22192 10.8104 8.06401 10.1525 8.38139C9.5803 8.65741 8.99327 8.7451 8.87816 8.83636C8.57291 9.0784 9.89639 8.52034 11.452 8.06877C14.8076 7.09471 17.3434 6.74814 17.842 6.72566C18.2557 6.70701 18.9304 6.61192 19.4998 6.74678C19.2151 7.15135 18.7097 7.56409 17.3141 8.57755C16.0534 9.45615 13.671 11.0744 11.0801 13.0142" stroke="#CC232A" stroke-width="2" stroke-linecap="round"/>
</svg>
