<svg width="109" height="58" viewBox="0 0 109 58" fill="none" xmlns="http://www.w3.org/2000/svg">
<path d="M1 18.904C5.63464 18.904 17.1161 18.4849 27.6062 17.6404C33.0154 17.205 42.0424 15.7547 55.1176 13.0118C68.1927 10.2688 85.0228 6.07828 94.0084 3.81474C103.637 1.38915 105.327 1.1258 107.342 1.02103C108.309 0.970741 109.146 0.706739 102.637 4.99889C96.1281 9.29105 82.2433 18.0912 72.7764 23.4628C53.0377 34.6626 46.9129 33.9265 43.8338 35.4059C41.156 36.6925 38.4086 37.1012 37.8699 37.5266C36.4414 38.6547 42.6353 36.0535 49.9155 33.9487C65.6197 29.4085 77.4875 27.793 79.8208 27.6883C81.7572 27.6013 84.9144 27.1581 87.5792 27.7867C86.2468 29.6724 83.8817 31.5963 77.3504 36.3202C71.4504 40.4155 60.3005 47.9585 48.1752 57" stroke="#CC232A" stroke-width="2" stroke-linecap="round"/>
</svg>
